<?xml version="1.0" encoding="iso-8859-1"?>
<!-- Generator: Adobe Illustrator 17.1.0, SVG Export Plug-In . SVG Version: 6.00 Build 0)  -->
<!DOCTYPE svg PUBLIC "-//W3C//DTD SVG 1.1//EN" "http://www.w3.org/Graphics/SVG/1.1/DTD/svg11.dtd">
<svg version="1.1" id="Capa_1" xmlns="http://www.w3.org/2000/svg" xmlns:xlink="http://www.w3.org/1999/xlink" x="0px" y="0px"
	 viewBox="0 0 512 512" style="enable-background:new 0 0 512 512;" xml:space="preserve">
<g>
	<path d="M424,457.018V168C424,75.364,348.636,0,256,0S88,75.364,88,168v289.018c-13.787,3.569-24,16.116-24,31.003V504
		c0,4.418,3.582,8,8,8h368c4.418,0,8-3.582,8-8v-15.979C448,473.133,437.787,460.587,424,457.018z M432,496H80v-7.979
		C80,479.187,87.187,472,96.021,472h263.982c4.418,0,8-3.582,8-8s-3.582-8-8-8H104V168c0-83.813,68.187-152,152-152
		s152,68.187,152,152v288h-15.996c-4.418,0-8,3.582-8,8s3.582,8,8,8h23.975c8.834,0,16.021,7.187,16.021,16.021V496z"/>
	<path d="M328,144h-48V96c0-4.418-3.582-8-8-8h-32c-4.418,0-8,3.582-8,8v48h-48c-4.418,0-8,3.582-8,8v32c0,4.418,3.582,8,8,8h48v144
		c0,4.418,3.582,8,8,8h32c4.418,0,8-3.582,8-8V192h48c4.418,0,8-3.582,8-8v-32C336,147.582,332.418,144,328,144z M320,176h-48
		c-4.418,0-8,3.582-8,8v144h-16V184c0-4.418-3.582-8-8-8h-48v-16h48c4.418,0,8-3.582,8-8v-48h16v48c0,4.418,3.582,8,8,8h48V176z"/>
</g>
<g>
</g>
<g>
</g>
<g>
</g>
<g>
</g>
<g>
</g>
<g>
</g>
<g>
</g>
<g>
</g>
<g>
</g>
<g>
</g>
<g>
</g>
<g>
</g>
<g>
</g>
<g>
</g>
<g>
</g>
</svg>
